<?xml version="1.0" encoding="UTF-8"?>
<svg width="128" height="128" viewBox="0 0 128 128" fill="none" xmlns="http://www.w3.org/2000/svg">
  <!-- Background circle -->
  <circle cx="64" cy="64" r="60" fill="#667eea" stroke="#764ba2" stroke-width="8"/>
  
  <!-- Camera lens -->
  <circle cx="64" cy="50" r="25" fill="#ffffff" opacity="0.2"/>
  <circle cx="64" cy="50" r="20" fill="#ffffff" opacity="0.3"/>
  <circle cx="64" cy="50" r="15" fill="#ffffff" opacity="0.5"/>
  <circle cx="64" cy="50" r="8" fill="#2c3e50"/>
  
  <!-- Camera body -->
  <rect x="35" y="35" width="58" height="30" rx="5" fill="#34495e"/>
  <rect x="30" y="40" width="68" height="20" rx="3" fill="#2c3e50"/>
  
  <!-- Flash -->
  <circle cx="85" cy="42" r="3" fill="#f39c12"/>
  
  <!-- Comparison arrows -->
  <path d="M20 85 L35 85 M27.5 78 L35 85 L27.5 92" stroke="#ffffff" stroke-width="3" fill="none" stroke-linecap="round" stroke-linejoin="round"/>
  <path d="M108 85 L93 85 M100.5 78 L93 85 L100.5 92" stroke="#ffffff" stroke-width="3" fill="none" stroke-linecap="round" stroke-linejoin="round"/>
  
  <!-- Diff indicator -->
  <rect x="55" y="95" width="18" height="6" rx="3" fill="#e74c3c"/>
  <rect x="58" y="98" width="12" height="2" rx="1" fill="#ffffff"/>
  
  <!-- VRT text (small) -->
  <text x="64" y="115" text-anchor="middle" font-family="Arial, sans-serif" font-size="10" font-weight="bold" fill="#ffffff">VRT</text>
</svg>